<svg width="300" height="172" fill="none" xmlns="http://www.w3.org/2000/svg"><path d="M285.989 51.942c1.723 6.968-.349 14.585-5.693 22.429-5.344 7.843-13.93 15.863-25.122 23.593-22.381 15.458-55.095 29.696-92.836 39.028-37.742 9.332-73.321 11.981-100.327 8.734-13.505-1.623-24.839-4.718-33.222-9.167-8.384-4.449-13.767-10.222-15.49-17.191-1.723-6.968.349-14.585 5.693-22.428 5.344-7.844 13.93-15.864 25.122-23.594C66.495 57.888 99.209 43.65 136.95 34.318c37.742-9.332 73.321-11.98 100.327-8.734 13.505 1.623 24.839 4.718 33.222 9.167 8.384 4.449 13.767 10.223 15.49 17.19z" stroke="#F0E8DF"/></svg>