<svg width="261" height="111" fill="none" xmlns="http://www.w3.org/2000/svg"><path d="M256.5 55.5c0 5.22-3.389 10.286-9.738 14.973-6.339 4.68-15.543 8.915-26.962 12.48-22.832 7.13-54.404 11.547-89.3 11.547-34.896 0-66.468-4.417-89.3-11.547-11.419-3.565-20.623-7.8-26.962-12.48C7.889 65.786 4.5 60.72 4.5 55.5c0-5.22 3.39-10.286 9.738-14.973 6.339-4.68 15.543-8.915 26.962-12.48C64.032 20.917 95.604 16.5 130.5 16.5c34.896 0 66.468 4.417 89.3 11.547 11.419 3.565 20.623 7.8 26.962 12.48 6.349 4.687 9.738 9.752 9.738 14.973z" stroke="#E46A4F"/><path d="M255.547 70.965c-.64 5.18-4.626 9.792-11.502 13.664-6.865 3.866-16.52 6.94-28.29 9.077-23.534 4.273-55.41 4.782-90.042.499-34.632-4.283-65.423-12.542-87.207-22.42-10.895-4.94-19.51-10.273-25.227-15.695-5.725-5.43-8.467-10.874-7.826-16.055.64-5.18 4.626-9.792 11.502-13.664 6.865-3.867 16.52-6.94 28.29-9.077 23.534-4.273 55.41-4.782 90.042-.5 34.632 4.284 65.423 12.543 87.207 22.42 10.895 4.94 19.51 10.273 25.227 15.696 5.725 5.43 8.467 10.874 7.826 16.055z" stroke="#E46A4F"/></svg>