<svg width="261" height="111" viewBox="0 0 261 111" fill="none" xmlns="http://www.w3.org/2000/svg">
<path d="M256.5 55.5C256.5 60.7205 253.111 65.786 246.762 70.4729C240.423 75.1526 231.219 79.3879 219.8 82.9534C196.968 90.0827 165.396 94.5 130.5 94.5C95.6042 94.5 64.0318 90.0827 41.2001 82.9534C29.7812 79.3879 20.5768 75.1526 14.238 70.4729C7.88933 65.786 4.50004 60.7205 4.50004 55.5C4.50004 50.2795 7.88933 45.214 14.238 40.5271C20.5768 35.8474 29.7812 31.6121 41.2001 28.0466C64.0318 20.9173 95.6042 16.5 130.5 16.5C165.396 16.5 196.968 20.9173 219.8 28.0466C231.219 31.6121 240.423 35.8474 246.762 40.5271C253.111 45.214 256.5 50.2795 256.5 55.5Z" stroke="#E46A4F"/>
<path d="M255.547 70.9645C254.907 76.1456 250.921 80.7568 244.045 84.629C237.18 88.4953 227.525 91.5689 215.755 93.706C192.221 97.9791 160.345 98.488 125.713 94.205C91.0813 89.922 60.2898 81.6631 38.5057 71.7855C27.6108 66.8454 18.9958 61.5124 13.2793 56.0901C7.55388 50.6594 4.81193 45.2162 5.45267 40.0352C6.09342 34.8541 10.0788 30.2429 16.9547 26.3707C23.82 22.5044 33.4746 19.4308 45.2447 17.2937C68.7788 13.0206 100.655 12.5118 135.287 16.7947C169.919 21.0777 200.71 29.3366 222.494 39.2142C233.389 44.1544 242.004 49.4874 247.721 54.9096C253.446 60.3403 256.188 65.7835 255.547 70.9645Z" stroke="#E46A4F"/>
</svg>
